PathFileType	4	(X/Y/Z)	C:\Users\dbl\Desktop\20210112\20210112\bx_n_0_501-Unnamed.trc
DataRate	CameraRate	NumFrames	NumMarkers	Units	OrigDataRate	OrigDataStartFrame	OrigNumFrames
50.00	50.00	       10	0	mm	50.00	297	       339
Frame#	Time	
		

297	5.920				-693.65161	264.22388	745.31543							-689.88690	277.63062	875.50476	-753.61078	-25.14021	206.27716	-659.12109	15.83660	518.87646				-876.20959	-78.91647	141.41353							-546.82269	213.45438	165.08476				-678.47003	154.98219	158.18660							-795.59125	180.94623	184.58957	-761.08618	224.23961	205.23518	-588.84711	184.03009	174.24913	-882.72278	296.08923	144.48718	-724.63147	242.62563	576.39050	-640.37683	274.00241	159.93007	-601.71765	274.32095	159.81682	-527.98840	303.97232	146.18501										-692.82544	69.63102	576.83618	-795.25128	31.03659	174.49747										-722.67651	68.66602	216.84839							-719.86176	143.38724	217.00575													-517.81085	-72.96118	143.22667	
298	5.940				-693.57837	264.53275	745.27954							-690.12067	277.99582	875.49103	-753.76727	-25.00525	206.24562	-659.13928	16.02930	519.00122				-876.12219	-78.89765	141.41621							-546.84570	213.20590	165.06377				-678.47003	154.98219	158.18660							-795.67944	180.76407	184.61490	-761.15509	224.19719	205.35661	-588.86469	183.95627	174.30310	-882.68158	296.13046	144.56700	-724.71185	242.61018	576.21033	-640.37683	274.00241	159.93007	-601.73535	274.44305	159.95793	-528.03784	304.00616	146.17915										-692.91418	70.17919	576.69666	-795.25128	31.03659	174.49747										-722.37732	68.68317	216.72624							-719.82257	143.16896	217.25545													-517.81085	-72.96118	143.22667	
299	5.960				-693.58997	265.25229	745.32019							-689.96088	277.99719	875.17554	-753.76727	-25.00525	206.24562	-659.11871	16.25206	518.87982				-876.12219	-78.89765	141.41621							-546.68695	213.40092	165.38171				-678.56714	154.92393	158.45467							-795.58069	180.97525	184.55772	-760.96490	224.10364	205.09094	-588.86938	184.10222	174.16844	-882.57031	296.19208	144.73668	-724.74878	242.71066	576.26556	-640.33264	273.89243	160.01131	-601.87549	274.34918	159.72960	-528.33368	304.14871	146.40765										-692.82953	70.49810	576.58838	-794.37964	30.99647	173.88391										-722.39539	68.72213	216.47688							-720.04999	143.29260	217.25534													-517.81085	-72.96118	143.22667	
300	5.980				-693.64044	265.24219	745.09326							-690.04297	278.29431	875.33612	-753.76727	-25.00525	206.24562	-658.78857	16.62695	519.08276				-876.12219	-78.89765	141.41621							-546.80951	213.45424	164.93362				-678.56714	154.92393	158.45467							-795.81549	181.03134	184.54535	-760.99371	224.30089	205.10985	-588.91351	184.21153	174.10806	-882.71674	296.13635	144.58629	-724.53632	243.13220	575.83606	-640.37286	274.06317	159.81787	-601.87726	274.33960	159.71643	-528.20984	304.20206	146.31906										-693.16278	70.65073	576.73590	-795.30945	31.09633	174.44389										-722.51868	69.06345	216.40796							-719.99567	143.54042	217.16075													-517.81696	-72.82327	143.04913	
301	6.000				-693.75122	265.61014	745.12427							-690.03088	278.56091	875.39581	-753.76727	-25.00525	206.24562	-658.96667	16.93744	518.96655				-876.14905	-78.79788	141.54057							-546.98108	213.50954	165.04482				-678.56714	154.92393	158.45467							-795.57239	180.92288	184.59827	-760.94202	224.40054	205.13591	-588.80603	184.06871	174.22549	-882.56329	296.20087	144.64758	-724.49127	243.17342	575.72290	-640.37683	274.00241	159.93007	-601.78693	274.39587	159.76421	-528.24188	304.07635	146.21542										-693.11023	70.92323	577.00250	-794.37964	30.99647	173.88391										-722.61322	69.39556	216.19664							-720.01764	143.36923	217.24629													-517.81085	-72.96118	143.22667	
302	6.020				-693.80554	265.62466	744.79645							-690.33356	278.98709	875.40759	-754.11041	-24.65112	206.60382	-658.83600	17.05833	518.84216				-876.14905	-78.79788	141.54057							-546.74347	213.37981	165.17401				-678.64056	154.79422	158.33397							-795.70233	181.00545	184.59659	-761.06812	224.54094	205.07445	-588.86938	184.10222	174.16844	-882.56976	296.10037	144.61523	-724.49127	243.17342	575.72290	-640.37286	274.06317	159.81787	-601.70551	274.27869	159.76160	-528.17377	303.96555	146.50659										-692.64471	71.28278	576.55701	-794.37860	31.13266	173.89977										-722.58099	69.60842	216.32869							-720.02747	143.57686	217.16696													-517.79498	-72.90541	143.13284	
303	6.040				-693.76715	265.64575	744.67224							-690.31042	279.21252	875.24426	-753.97650	-24.41807	206.47795	-658.62506	17.27531	518.73212				-876.14905	-78.79788	141.54057							-546.82697	213.60309	165.22218				-678.56714	154.92393	158.45467							-795.75128	181.09520	184.50540	-761.21082	224.48048	205.10382	-588.89124	184.13940	174.18875	-882.57111	296.04724	144.60146	-724.49127	243.17342	575.72290	-640.37286	274.06317	159.81787	-601.81818	274.40643	159.71895	-528.24188	304.07635	146.21542										-692.63000	71.36455	576.52820	-794.37860	31.13266	173.89977										-722.71484	69.77913	216.34985							-720.01764	143.36923	217.24629													-517.81085	-72.96118	143.22667	
304	6.060				-693.64777	265.93420	744.71863							-690.39899	279.57043	875.37537	-753.97650	-24.41807	206.47795	-658.65039	17.27937	518.99030				-876.10693	-78.99421	141.26549							-546.81885	213.48016	165.15094				-678.56714	154.92393	158.45467							-795.65552	180.95920	184.51790	-761.03357	224.36554	205.06847	-588.89124	184.13940	174.18875	-882.56689	296.15085	144.56075	-724.46954	243.26735	575.72083	-640.43927	273.97528	160.00137	-601.87549	274.34918	159.72960	-528.34180	304.17368	146.40434										-692.77167	71.93568	576.51764	-794.37860	31.13266	173.89977										-722.95770	69.88173	216.01944							-720.16595	143.36935	217.18288													-517.81085	-72.96118	143.22667	
305	6.080				-693.58289	265.86865	744.56909							-690.15717	280.28116	875.65112	-753.90179	-23.59058	206.44530	-658.46973	17.48067	518.98633				-876.14905	-78.79788	141.54057							-546.74353	213.59578	165.30228				-678.64056	154.79422	158.33397							-795.66669	180.97214	184.53026	-760.93811	224.42610	204.92329	-588.86938	184.10222	174.16844	-882.66632	296.26215	144.70044	-724.68262	243.73187	575.90295	-640.37286	274.06317	159.81787	-601.78693	274.39587	159.76421	-528.24139	304.00241	146.24747										-692.64978	72.36780	576.58057	-794.34381	31.22485	174.02371										-722.54755	69.67236	216.03871							-720.17181	143.22681	217.59468													-517.81232	-72.76996	143.25470	
306	6.100				-693.64777	265.93420	744.71863							-689.96234	280.58020	875.61328	-753.90179	-23.59058	206.44530	-658.74176	17.68320	518.72162				-876.13379	-78.89445	141.38989							-546.81036	213.64386	165.28824				-678.64056	154.79422	158.33397							-795.60730	180.85684	184.47830	-761.00275	224.31013	204.77974	-588.88690	184.02840	174.22241	-882.67102	296.21390	144.65089	-724.57477	243.83661	575.73853	-640.52533	274.13336	159.66824	-601.95563	274.51181	159.51257	-528.45721	304.11142	146.34796										-692.78949	72.47255	576.46796	-794.33600	31.28502	173.89413										-722.70349	70.29533	216.20821							-720.31714	143.63792	217.12288													-517.77155	-72.88757	143.05847	
